PathFileType	4	(X/Y/Z)	41_2_82_p0_0-409.trc
DataRate	CameraRate	NumFrames	NumMarkers	Units	OrigDataRate	OrigDataStartFrame	OrigNumFrames
59.0	59.0	6	27	m	59.0	102	410
Frame#	Time	RHip			RKnee			RAnkle			RBigToe			RSmallToe			RHeel			LHip			LKnee			LAnkle			LBigToe			LSmallToe			LHeel			Neck			Head			Nose			RShoulder			RElbow			RWrist			RThumb			RIndex			RPinky			LShoulder			LElbow			LWrist			LThumb			LIndex			LPinky			
		X1	Y1	Z1	X2	Y2	Z2	X3	Y3	Z3	X4	Y4	Z4	X5	Y5	Z5	X6	Y6	Z6	X7	Y7	Z7	X8	Y8	Z8	X9	Y9	Z9	X10	Y10	Z10	X11	Y11	Z11	X12	Y12	Z12	X13	Y13	Z13	X14	Y14	Z14	X15	Y15	Z15	X16	Y16	Z16	X17	Y17	Z17	X18	Y18	Z18	X19	Y19	Z19	X20	Y20	Z20	X21	Y21	Z21	X22	Y22	Z22	X23	Y23	Z23	X24	Y24	Z24	X25	Y25	Z25	X26	Y26	Z26	X27	Y27	Z27	
102	1.728813559322034	0.39430591021522426	0.5273845367636176	-0.047564516821233485	0.3974278432129476	0.6287964445110411	0.37644992260881793	0.3704568159498309	0.6685635745491422	0.709565035462572	0.36544018321765825	0.5472336873438209	0.757466598421419	0.43377987370225396	0.5467599678004357	0.7485689650551235	0.34229661360395014	0.7590391186522369	0.7843839208321991	0.20437741331145284	0.5464445417056845	-0.04631732367079532	0.17576823635737013	0.6411566410914861	0.3779062112198414	0.17972802392845919	0.6995072761227826	0.7380566474971093	0.18620864386380287	0.5002410294175127	0.7295723316549613	0.1353464935979244	0.5678154398583184	0.7454797422700504	0.19970375359749426	0.7447821242601464	0.7894106960671177	0.2779867167677063	0.5174474961774448	-0.5524413304195696	0.2723442618946868	0.49132322263771677	-0.7902181807445677	0.28738422493826904	0.40592656549917566	-0.6753451032136762	0.4275295231717893	0.5191372497552464	-0.45606300627434004	0.45888530155775786	0.4469021214856637	-0.24735597539657775	0.3492075491426988	0.3234972928014991	-0.11480260688107768	0.25112842513901235	0.2801471232883675	-0.0710215210331484	0.25025731471909285	0.28164738067000666	-0.04132605727965322	0.29152492308484196	0.31892216229794196	-0.01937948588486897	0.11479580586134248	0.5399536905136177	-0.4668529780941277	0.09717361054128279	0.509425185424016	-0.24582941149926746	0.19485438709084815	0.3385587017334758	-0.11174776039997263	0.25109209463089327	0.2659788947657607	-0.10862015215473117	0.26245935304052037	0.2874838900484045	-0.05817021821975594	0.24707049029935216	0.3175348277951231	-0.026322851207632572
103	1.7457627118644068	0.3935517384187468	0.5261626912778592	-0.05148022289359635	0.3974048585918512	0.6290144248899161	0.3767113986214025	0.3704170259420647	0.6685369888378772	0.7096117818438551	0.36538576964518	0.5472698965101205	0.757415600489256	0.42919237084199485	0.5337579696973177	0.7420576041279712	0.34315223166162606	0.7588422100909739	0.7791142074806575	0.20473077898627418	0.5458097227028517	-0.042831983480886834	0.17579957506564467	0.6410909051665874	0.3778090120593591	0.17971273684409036	0.6995958550591528	0.7381227974419268	0.1861859845293715	0.5001055966643397	0.7295127149492506	0.13868479460194574	0.5543675885801498	0.7420021057091155	0.19966165254396442	0.745066990291454	0.7895630618269988	0.2779728551912112	0.5174610952440546	-0.5524626760429421	0.27227848728673276	0.4913511529258523	-0.7902731808718672	0.28738535338013455	0.40608676991189235	-0.6753253718980168	0.42721881931075556	0.5196361895700659	-0.4596251931988768	0.45891226912395117	0.4470031861109845	-0.24736812773456124	0.349173857077464	0.32354108778996893	-0.11467155741345243	0.2498360054231413	0.2582785982371145	-0.08431571415166365	0.24724022390321732	0.27067677672012636	-0.04431848250436342	0.29150790654051545	0.3188236842991087	-0.019476600993937256	0.11476779392893345	0.5400527501393498	-0.4668433205049438	0.09718769648103386	0.5093333851142905	-0.24587662287573916	0.19479183706350037	0.33855538896884474	-0.11175136099196781	0.2509814620813978	0.26565945128064505	-0.10878081148713069	0.25879689222728286	0.2770409022357464	-0.06089807036987163	0.2470418909939513	0.3173725922906013	-0.026221285946168505
104	1.7627118644067796	0.394356611439245	0.5273979347955374	-0.04760011502089837	0.39741316479802574	0.6288680352503714	0.37657251308475803	0.3750468344400462	0.6828329114891322	0.716434293916376	0.36080446119685056	0.5339849843260037	0.7508956189776058	0.42598746279483407	0.5488803138380338	0.7504558994544293	0.3475753564086167	0.772163813871776	0.7859719470802833	0.20488781138043338	0.545742476242758	-0.04289401242879514	0.17612060295595874	0.6419886437270486	0.369690554083182	0.17967231782255766	0.699693727286952	0.7380038627309723	0.18629061433670321	0.5002860427389608	0.7295990637276623	0.1421391098424854	0.5682461707780003	0.748921846395639	0.19954204106675405	0.7453303534862774	0.7897664689300519	0.2779281226574317	0.5174485557557821	-0.5523816363153452	0.27207247600545587	0.49119500086613116	-0.7901770876887706	0.28731847966509927	0.4060101047464543	-0.6752742423183117	0.42700846485776406	0.5193522413993372	-0.4597090818852858	0.4589305307119048	0.44687452983351056	-0.2475324820785509	0.3491929529824127	0.323520430761858	-0.11476191477288414	0.2504785721543207	0.2814032829971537	-0.07130494988262097	0.25033158881511275	0.28160111973953805	-0.04121384241325212	0.2916763570547712	0.31896335063283254	-0.019335243281314952	0.1180743835376993	0.5532762651424199	-0.46549018905524286	0.10140603016856284	0.5102264798572547	-0.2459317391059123	0.19483755132798355	0.33850268132778183	-0.11174262508243137	0.25177090832700544	0.2666935111709723	-0.10563061245923219	0.2619763303667537	0.2878906238683628	-0.054118487872533365	0.24700537239333326	0.3174591229674067	-0.0262267544189123
105	1.7796610169491525	0.3943906384323277	0.5277321434062423	-0.04758770714623413	0.3930290961029381	0.6274643811413293	0.376081794342324	0.37514920305796223	0.6828770479230678	0.7165274577358827	0.36529042581054627	0.5469619887587683	0.7574600642747987	0.42906459834073757	0.5337096360229505	0.7421655985354126	0.34686384774084905	0.7728498631666512	0.7915225081528156	0.2049389417415901	0.5458300421058518	-0.042847809192217194	0.17587499950131644	0.6414551931597074	0.3781657884381839	0.17970796343314732	0.699664190012456	0.7381269429068767	0.18621745261640155	0.5003020476195699	0.7296081948360639	0.13432079581475445	0.5685186544432885	0.749652606619092	0.1996109289331922	0.7450853295078876	0.7896578300608313	0.27794344185802705	0.5174953783951791	-0.5523739055624598	0.27207317594545705	0.49123101523467627	-0.7901949366794345	0.2873340701205045	0.406072515250959	-0.6753150204956586	0.4271596603216397	0.5192753636413885	-0.45977325513121403	0.4589584081053486	0.44679811980768536	-0.2475822964274657	0.3491774468423316	0.32348441600400324	-0.11483689308536436	0.2534528759026121	0.2700049631066103	-0.07460511461778307	0.25033063687324586	0.2814393393672715	-0.04122130073731448	0.291515574013751	0.31887335733434075	-0.019382774662582487	0.11805558300710395	0.5534480093245311	-0.4654758291700837	0.10149322428903616	0.5105573188017904	-0.24576087940831357	0.1948282549830318	0.338436858102303	-0.11167813342620128	0.25106741837189156	0.2654256124845461	-0.1087808501744071	0.26191347551928973	0.2873527027845526	-0.054317501735280944	0.2502725814880898	0.30481181104579086	-0.029869689021404813
106	1.7966101694915255	0.39441015914958394	0.5276791416241217	-0.04763222187805499	0.39739592774421945	0.6288147198135903	0.37641004181382337	0.3751562492411908	0.6831180491126807	0.716512280225404	0.3653313760384644	0.5471959227751069	0.7576252449379144	0.4335644465566889	0.5464730778092145	0.7485939975705105	0.3477828631392202	0.7725848769384597	0.7860545541932237	0.2049376762686019	0.5458423581166	-0.042777841165604104	0.1757472966643444	0.6413027636497243	0.37772247041482016	0.17967454353749324	0.6995013801787101	0.7379976811580616	0.1863447509104336	0.5004032199334804	0.7296865477025972	0.13868555888582074	0.554335638700305	0.7420921188946489	0.19971044741396124	0.7455605460888626	0.7898142983365941	0.27793850323017505	0.517529036510541	-0.5524071991971337	0.2720711735045953	0.4912892846836916	-0.7902030506558538	0.2838709598144858	0.39465580253776555	-0.6756100107393148	0.427093973846456	0.5192624622040216	-0.4597714384600537	0.4589280319577432	0.44683615898564033	-0.2475340134348394	0.3492358519061608	0.32357057595388183	-0.11489518830731897	0.25387865874278825	0.2697625963424988	-0.07786627987978896	0.25033891788413565	0.2815626655442333	-0.041212380006429274	0.29156819075874546	0.3190048104864096	-0.019299711391706727	0.11804054998009732	0.5534283836066335	-0.4655149527335274	0.10181933188297457	0.5108302680254398	-0.24556675408621997	0.19494139284077566	0.33859690955661764	-0.1116902895578728	0.25171321296022214	0.26657146821733063	-0.10577292472853506	0.2624234020468894	0.2874795790461377	-0.05800604586077931	0.25062384708294216	0.3040704959180492	-0.026454166640277044
107	1.8135593220338984	0.398847656732599	0.5399126862531276	-0.04473279326927279	0.39755783300832115	0.6288326986035481	0.37629841808016506	0.3751067431395721	0.6828386797015447	0.7164234480894406	0.3654055181143424	0.547333807962831	0.7577670339429228	0.43372669432943234	0.5469826579284209	0.7488474492007671	0.3468285949998046	0.7728416166460786	0.7913116344817502	0.20494991655120276	0.5459403483543099	-0.042730568053977916	0.17576277935452944	0.6410899960938757	0.37772264612343703	0.17970650212172465	0.6994451911356669	0.7379753274772817	0.1863047433358399	0.5001815906881099	0.7296922613535666	0.13866115570720894	0.5542447632585035	0.7419942912833909	0.1996765099575471	0.7450470806585605	0.7895167619709209	0.2779557248127713	0.5174663834695749	-0.5524577055884407	0.2720440246723986	0.4912554037500768	-0.7902081633704421	0.28386660979719824	0.3945338559992351	-0.6756306577115164	0.42714006909026847	0.5192200461483784	-0.4597990118371994	0.4589320250028395	0.44667774814401634	-0.24763988484395816	0.3493493589837216	0.3234110024041519	-0.11498395967626453	0.2539047151711228	0.26964633463276066	-0.07807702740582315	0.2504087848672487	0.2815398078245918	-0.041230800694292594	0.2917448276671089	0.3189295025114866	-0.019434476407693305	0.11802460430173048	0.5534538453676684	-0.4655121451770875	0.1020205652563027	0.5110343731960123	-0.24544065883217012	0.19490342261678806	0.3385833815683652	-0.11169704726719593	0.251632833550407	0.2665763198280822	-0.10588953017693425	0.26231043244217717	0.2873227909646382	-0.05813628257211213	0.2503242497636782	0.304758882798249	-0.030114216486318925
